<?xml version="1.0" encoding="utf-8" ?><svg xmlns="http://www.w3.org/2000/svg" xmlns:xlink="http://www.w3.org/1999/xlink" width="1024" height="1024" viewBox="0 0 1024 1024"><defs><linearGradient id="gradient_0" gradientUnits="userSpaceOnUse" x1="219.57037" y1="83.106155" x2="277.57782" y2="431.65933"><stop offset="0" stop-color="#42BB39"></stop><stop offset="1" stop-color="#7ED077"></stop></linearGradient></defs><path fill="url(#gradient_0)" transform="scale(2 2)" d="M76.2369 106.528C76.2689 102.186 75.793 96.9507 76.5615 92.7463C79.2525 78.0247 101.103 81.7264 112.279 81.7367L183.967 81.7284C200.576 81.7272 201.542 80.7218 210.121 96.5402C211.761 99.5652 213.525 102.652 215.243 105.673C217.076 108.534 221.271 116.948 223.016 118.894L386.242 118.886C397.616 118.879 413.662 114.438 412.923 128.388C413.082 135.096 412.925 142.269 412.923 149.025L412.923 189.493C429.337 189.379 435.565 190.941 435.641 209.118L435.701 406.083C435.716 407.452 435.834 410.577 435.644 411.759C435.022 427.183 419.324 425.721 408.679 425.711L94.3587 425.711C74.7146 425.625 76.1648 415.11 76.2369 398.746C75.9803 388.409 76.2406 377.113 76.2426 366.678L76.2369 106.528Z"></path><path fill="#48C03B" transform="scale(2 2)" d="M76.2369 398.746L76.4687 398.972C84.4939 406.942 82.0732 407.911 95.6846 407.942L411.374 407.936C425.342 407.943 425.185 409.884 435.644 400.779C435.48 404.492 435.359 408.039 435.644 411.759C435.022 427.183 419.324 425.721 408.679 425.711L94.3587 425.711C74.7146 425.625 76.1648 415.11 76.2369 398.746Z"></path><path fill="#3AA134" transform="scale(2 2)" d="M76.2369 106.528C76.2689 102.186 75.793 96.9507 76.5615 92.7463C79.2525 78.0247 101.103 81.7264 112.279 81.7367L183.967 81.7284C200.576 81.7272 201.542 80.7218 210.121 96.5402C211.761 99.5652 213.525 102.652 215.243 105.673C212.874 107.436 203.01 106.539 199.775 106.542L84.3961 106.491C82.9502 106.476 77.3937 106.301 76.2369 106.528Z"></path><path fill="#3AA134" transform="scale(2 2)" d="M223.016 118.894L386.242 118.886C397.616 118.879 413.662 114.438 412.923 128.388C412.849 129.472 412.91 130.897 412.923 132.011C409.441 132.172 404.809 132.031 401.252 132.023L266.533 132.01C254.79 132.012 226.47 134.821 223.016 118.894Z"></path><path fill="#DDEBDD" transform="scale(2 2)" d="M93.3004 236.912C93.5001 231.041 93.3098 223.836 93.31 217.876L93.274 168.667C93.2401 154.941 94.8527 151.598 108.042 151.079L370.94 151.066C390.184 151.068 395.292 148.209 395.285 170.592L395.263 189.493C374.354 189.445 376.744 187.399 363.732 201.284C362.389 203.26 359.863 207.373 357.762 208.256C354.196 214.302 346.527 223.806 341.522 229.437C335.769 238.048 332.075 236.942 322.47 236.932L125.832 236.914C120.429 236.915 114.176 237.082 108.862 236.912C104.524 237.125 97.8071 236.913 93.3004 236.912Z"></path><path fill="#B6D9B7" transform="scale(2 2)" d="M357.762 208.256C356.927 207.967 320.178 208.261 316.697 208.26L118.902 208.262C112.587 208.277 112.179 201.394 118.774 201.283C124.972 201.179 131.193 201.324 137.401 201.294L344.013 201.282C350.486 201.283 357.32 201.448 363.732 201.284C362.389 203.26 359.863 207.373 357.762 208.256Z"></path><path fill="#B6D9B7" transform="scale(2 2)" d="M114.227 236.912C113.847 232.541 113.527 230.519 118.445 229.993C128.47 228.922 138.469 229.616 148.493 229.576L341.522 229.437C335.769 238.048 332.075 236.942 322.47 236.932L125.832 236.914C120.429 236.915 114.176 237.082 108.862 236.912C110.363 236.546 112.656 236.801 114.227 236.912Z"></path><path fill="#B6D9B7" transform="scale(2 2)" d="M118.802 173.279L365.312 173.192C370.546 173.215 371.335 180.289 365.187 180.28L118.744 180.263C112.155 180.085 112.442 173.758 118.802 173.279Z"></path><path fill="#48C03B" transform="scale(2 2)" d="M315.506 306.939L412.238 306.939L412.238 398.746C411.663 399.043 324.236 398.49 315.506 398.746L315.506 306.939Z"></path><path fill="#DDEBDD" transform="scale(2 2)" d="M373.267 364.929C383.335 363.665 384.306 373.538 378.409 374.282C392.201 382.106 371.284 393.833 367.71 381.822C367.282 380.382 370.607 380.718 371.24 380.754L371.573 380.932C373.418 385.525 378.721 385.162 378.845 379.891C378.944 375.634 371.786 377.905 372.764 374.347C373.742 373.555 381.156 373.45 377.352 368.019C375.184 364.923 371.178 373.041 368.276 369.566C368.257 367.247 371.434 365.656 373.267 364.929Z"></path><path fill="#DDEBDD" transform="scale(2 2)" d="M343.77 364.929L357.762 364.929L357.762 368.535C354.436 368.557 351.055 368.612 347.735 368.535C347.579 370.778 347.584 372.051 347.735 374.282C349.567 374.26 355.835 373.921 357.064 374.658L357.177 375.557C356.928 379.127 351.523 377.565 347.735 377.535L347.735 386.698L343.77 386.698L343.77 364.929Z"></path><path fill="#DDEBDD" transform="scale(2 2)" d="M390.165 364.929C398.117 364.258 403.337 372.163 395.263 374.282C408.182 384.008 390.246 391.014 385.06 383.672C383.354 381.256 384.52 380.704 386.812 380.754C387.121 380.773 396.628 388.531 395.857 379.209C395.622 376.358 390.332 377.873 389.992 374.85C390.936 372.82 394.425 373.451 394.887 372.112C396.515 367.39 391.506 365.624 388.719 370.292C387.484 370.333 386.228 370.304 384.991 370.292C386.214 366.824 386.834 366.193 390.165 364.929Z"></path><path fill="#DDEBDD" transform="scale(2 2)" d="M326.514 364.929L340.026 364.929L340.026 368.535L330.472 368.535C330.348 370.576 330.405 372.229 330.472 374.282C336.107 374.235 339.65 372.374 340.026 377.535L339.896 377.719C339.504 377.898 331.764 377.528 330.472 377.535L330.472 386.698L326.514 386.698C326.408 379.537 326.512 372.112 326.514 364.929Z"></path></svg>